PathFileType	4	(X/Y/Z)	TVC_41_BWA_06_walk_RCNL2025.trc
DataRate	CameraRate	NumFrames	NumMarkers	Units	OrigDataRate	OrigDataStartFrame	OrigNumFrames
100	100	10	27	mm	100	217	867
Frame#	Time	R_Shoulder			L_Shoulder			C7			J_Notch			R_Elbow			L_Elbow			R_Wrist			L_Wrist			R_Asis			L_Asis			R_Psis			L_Psis			Sacral			Thoracic			Sternum			R_Thigh_Lateral			R_Knee_Lateral			R_Shank_Lateral			R_Ankle_Lateral			R_Heel			R_Toe			L_Thigh_Lateral			L_Knee_Lateral			L_Shank_Lateral			L_Ankle_Lateral			L_Heel			L_Toe		
		X1	Y1	Z1	X2	Y2	Z2	X3	Y3	Z3	X4	Y4	Z4	X5	Y5	Z5	X6	Y6	Z6	X7	Y7	Z7	X8	Y8	Z8	X9	Y9	Z9	X10	Y10	Z10	X11	Y11	Z11	X12	Y12	Z12	X13	Y13	Z13	X14	Y14	Z14	X15	Y15	Z15	X16	Y16	Z16	X17	Y17	Z17	X18	Y18	Z18	X19	Y19	Z19	X20	Y20	Z20	X21	Y21	Z21	X22	Y22	Z22	X23	Y23	Z23	X24	Y24	Z24	X25	Y25	Z25	X26	Y26	Z26	X27	Y27	Z27
217	2.16000000	-1321.464355	1232.207397	468.748718	-1320.492798	1247.026367	129.319427	-1375.126587	1296.782104	301.168152	-1245.457031	1198.020508	304.325500	-1408.586670	946.508179	491.723877	-1380.060791	955.200928	77.869629	-1202.732117	896.826752	468.696869	-1312.384338	761.703308	41.631016	-1267.634888	860.408447	430.675201	-1265.523071	826.795898	188.735031	-1433.127197	870.632629	357.741486	-1438.207153	851.525635	269.519165	-1435.667175	861.079132	313.630325	-1400.039917	1000.118652	287.904205	-1206.692749	1019.377075	289.343872	-1293.254517	637.198730	521.733032	-1294.442871	407.089294	430.266022	-1312.036377	274.606201	494.078888	-1308.320557	69.005280	412.608551	-1357.310791	42.345768	367.501526	-1195.927490	41.195946	402.288422	-1361.688599	562.208252	106.244186	-1378.469849	373.421204	199.648148	-1444.319702	252.333527	133.168579	-1549.676270	67.490479	189.803024	-1600.454468	53.219135	227.672211	-1434.417969	36.148239	209.133698
218	2.17000000	-1317.578125	1232.133667	470.522614	-1315.328003	1246.869995	131.104553	-1370.674438	1296.729370	302.803375	-1241.172729	1197.707031	306.408173	-1405.630249	946.741211	493.146790	-1375.141602	955.164856	79.358665	-1199.186157	896.526581	470.353073	-1307.397644	761.675110	43.444248	-1265.141724	859.969177	432.824463	-1262.170288	826.347778	190.852524	-1430.240967	871.101501	359.171204	-1435.078979	851.857300	270.938293	-1432.659973	861.479401	315.054749	-1396.397095	1000.271790	289.513519	-1202.825439	1018.924316	291.617004	-1293.610107	636.734253	523.859070	-1293.918701	406.700989	431.519043	-1311.937378	274.091583	494.890137	-1308.402344	68.748436	412.838287	-1357.412231	42.133793	367.631592	-1196.048462	41.164917	402.355011	-1358.707642	561.990845	107.830055	-1374.411377	372.752502	200.625870	-1441.546021	252.711273	133.606628	-1548.939087	68.735382	189.395950	-1600.044312	54.936756	226.993820	-1434.167358	36.171673	208.925171
219	2.18000000	-1313.710571	1232.130249	472.291290	-1310.198364	1246.740356	132.889252	-1366.223145	1296.738037	304.428833	-1236.919678	1197.418091	308.488647	-1402.865601	947.147217	494.629639	-1370.246948	955.160339	80.839447	-1195.681519	896.336395	472.005936	-1302.339294	761.714722	45.256098	-1262.753906	859.533875	434.922638	-1258.941406	826.007568	192.911728	-1427.457397	871.593506	360.570038	-1432.061768	852.256409	272.321655	-1429.759583	861.924957	316.445847	-1392.842041	1000.490295	291.131958	-1199.046753	1018.487000	293.898895	-1294.015869	636.287659	525.860474	-1293.411621	406.345856	432.671082	-1311.896240	273.638550	495.603058	-1308.459595	68.522491	412.982849	-1357.495361	41.981323	367.690979	-1196.149292	41.135723	402.405609	-1355.724854	561.888062	109.303490	-1370.093262	372.133698	201.465637	-1438.554688	253.190918	133.939651	-1548.089722	70.176025	188.900650	-1599.532104	56.920322	226.206451	-1433.878784	36.198177	208.656815
220	2.19000000	-1309.864380	1232.190796	474.056549	-1305.120728	1246.638550	134.676025	-1361.782349	1296.803955	306.048309	-1232.704346	1197.152710	310.564606	-1400.281982	947.713989	496.172272	-1365.395752	955.188110	82.316498	-1192.306458	896.232635	473.710007	-1297.223267	761.824677	47.066666	-1260.462646	859.102905	436.956146	-1255.836426	825.774353	194.904755	-1424.772583	872.106140	361.933594	-1429.153564	852.720642	273.663361	-1426.963074	862.413391	317.798477	-1389.375854	1000.769592	292.757202	-1195.359497	1018.066101	296.181427	-1294.419312	635.862061	527.718323	-1292.914062	406.025940	433.720062	-1311.887817	273.253021	496.228546	-1308.493042	68.326363	413.056580	-1357.565063	41.884510	367.700806	-1196.233276	41.109219	402.444214	-1352.698608	561.893433	110.656921	-1365.489868	371.567535	202.160019	-1435.314941	253.774796	134.168549	-1547.109253	71.829178	188.316498	-1598.890869	59.193203	225.318726	-1433.543701	36.223171	208.340195
221	2.20000000	-1306.042480	1232.307983	475.819733	-1300.110718	1246.564575	136.466782	-1357.361450	1296.922241	307.665131	-1228.532715	1196.908813	312.633514	-1397.865845	948.425049	497.771759	-1360.605957	955.248474	83.793343	-1189.173889	896.178436	475.528214	-1292.063965	762.006470	48.875824	-1258.258667	858.676208	438.912292	-1252.854858	825.644775	196.824768	-1422.182495	872.636658	363.257446	-1426.351929	853.245972	274.957794	-1424.267212	862.941315	319.107620	-1385.999634	1001.104126	294.386017	-1191.765747	1017.661804	298.456268	-1294.769165	635.458740	529.417603	-1292.417358	405.742065	434.665527	-1311.887329	272.935699	496.776611	-1308.504028	68.158417	413.073395	-1357.625122	41.837631	367.678619	-1196.303955	41.085838	402.474030	-1349.584717	561.997192	111.885262	-1360.577637	371.055939	202.703171	-1431.799072	254.463348	134.294693	-1545.977661	73.710060	187.644547	-1598.091064	61.777321	224.341049	-1433.156616	36.241627	207.990509
222	2.21000000	-1302.248169	1232.472656	477.581512	-1295.181641	1246.517822	138.262726	-1352.969116	1297.086670	309.281921	-1224.410034	1196.683472	314.692749	-1395.601196	949.259888	499.422729	-1355.894165	955.340881	85.272301	-1186.410645	896.127258	477.525848	-1286.875671	762.260406	50.683058	-1256.132568	858.252747	440.779724	-1249.995605	825.612976	198.666077	-1419.683228	873.181824	364.537445	-1423.654175	853.826843	276.199677	-1421.668701	863.504333	320.368561	-1382.713257	1001.487732	296.014435	-1188.266724	1017.273193	300.714966	-1295.017090	635.076782	530.947815	-1291.913330	405.493683	435.508453	-1311.871582	272.682404	497.255524	-1308.494873	68.016479	413.046173	-1357.677979	41.833237	367.637726	-1196.364380	41.065601	402.497131	-1346.338989	562.187439	112.985977	-1355.336426	370.599854	203.090790	-1427.982544	255.254852	134.319412	-1544.674438	75.831947	186.887741	-1597.101318	64.692696	223.284393	-1432.714478	36.248474	207.626144
223	2.22000000	-1298.484253	1232.675293	479.341888	-1290.344849	1246.496826	140.064148	-1348.613525	1297.290405	310.900513	-1220.341309	1196.473022	316.739349	-1393.470337	950.194641	501.117737	-1351.275146	955.464050	86.754333	-1184.142822	896.027344	479.763992	-1281.672729	762.585480	52.487322	-1254.075928	857.830872	442.548706	-1247.257446	825.670776	200.424149	-1417.270752	873.737915	365.769714	-1421.057251	854.455994	277.384430	-1419.164001	864.096954	321.577072	-1379.516724	1001.913574	297.637695	-1184.862915	1016.898560	302.949127	-1295.120728	634.713379	532.303589	-1291.394531	405.278839	436.251068	-1311.820312	272.485229	497.671448	-1308.468994	67.897850	412.986328	-1357.725098	41.862389	367.587189	-1196.417114	41.048161	402.514679	-1342.918701	562.450745	113.959068	-1349.750244	370.199646	203.320221	-1423.843872	256.144684	134.243652	-1543.177856	78.205566	186.051224	-1595.889404	67.956978	222.159409	-1432.217896	36.239090	207.267929
224	2.23000000	-1294.754028	1232.905029	481.099976	-1285.609131	1246.499023	141.870377	-1344.302002	1297.525757	312.521729	-1216.330688	1196.273315	318.770050	-1391.453979	951.203247	502.847778	-1346.762085	955.615845	88.238930	-1182.479431	895.827972	482.292313	-1276.469055	762.979156	54.286936	-1252.080322	857.408264	444.211273	-1244.638428	825.807922	202.095627	-1414.940918	874.300964	366.950897	-1418.558105	855.125000	278.508301	-1416.749512	864.712982	322.729599	-1376.409180	1002.374146	299.250519	-1181.554077	1016.535156	305.150452	-1295.045654	634.364014	533.484619	-1290.855591	405.094299	436.897034	-1311.717407	272.333923	498.028809	-1308.429932	67.799339	412.903748	-1357.766846	41.914989	367.532135	-1196.464600	41.032932	402.526886	-1339.284912	562.773438	114.806747	-1343.807617	369.855194	203.390442	-1419.364258	257.124725	134.068176	-1541.465332	80.838570	185.142303	-1594.423096	71.584763	220.975693	-1431.670776	36.209957	206.938278
225	2.24000000	-1291.060547	1233.151123	482.854065	-1280.981567	1246.521362	143.679642	-1340.041016	1297.784668	314.145386	-1212.381714	1196.079102	320.781281	-1389.531494	952.258118	504.602570	-1342.365723	955.793152	89.724152	-1181.497253	895.485504	485.142395	-1271.278076	763.437592	56.079472	-1250.138794	856.981934	445.761414	-1242.136475	826.012390	203.678299	-1412.690308	874.866638	368.078217	-1416.153687	855.824158	279.568481	-1414.421997	865.345398	323.823349	-1373.389160	1002.861755	300.847015	-1178.339478	1016.179443	307.310944	-1294.767578	634.023193	534.495605	-1290.293091	404.935669	437.451508	-1311.552246	272.217072	498.330658	-1308.381958	67.717377	412.806641	-1357.802734	41.980354	367.474854	-1196.508179	41.019241	402.533325	-1335.404541	563.142578	115.532707	-1337.502930	369.566223	203.302109	-1414.527466	258.183258	133.793854	-1539.513916	83.734734	184.170029	-1592.671021	75.586441	219.741241	-1431.078857	36.160030	206.659668
226	2.25000000	-1287.406128	1233.402344	484.601410	-1276.466431	1246.559570	145.489059	-1335.836060	1298.058472	315.770172	-1208.497437	1195.885010	322.769043	-1387.682129	953.331177	506.371155	-1338.094482	955.992126	91.206657	-1181.228516	894.968048	488.322159	-1266.112732	763.955536	57.861719	-1248.245117	856.548828	447.195251	-1239.749023	826.271057	205.171005	-1410.515625	875.430542	369.149506	-1413.841064	856.543152	280.563171	-1412.178345	865.986847	324.856339	-1370.455078	1003.368408	302.420990	-1175.217651	1015.827332	309.422974	-1294.274170	633.685181	535.345642	-1289.706177	404.797821	437.921051	-1311.319824	272.122955	498.579559	-1308.329102	67.648216	412.701599	-1357.831421	42.047943	367.415924	-1196.549194	41.006420	402.533142	-1331.252197	563.547119	116.141182	-1330.836548	369.332458	203.057602	-1409.319946	259.305420	133.422150	-1537.300293	86.892784	183.144623	-1590.603760	79.966599	218.462418	-1430.447510	36.092731	206.452805
